<?xml version="1.0" encoding="UTF-8" standalone="no"?>
<svg
   xmlns:dc="http://purl.org/dc/elements/1.1/"
   xmlns:cc="http://creativecommons.org/ns#"
   xmlns:rdf="http://www.w3.org/1999/02/22-rdf-syntax-ns#"
   xmlns:svg="http://www.w3.org/2000/svg"
   xmlns="http://www.w3.org/2000/svg"
   xmlns:xlink="http://www.w3.org/1999/xlink"
   version="1.1"
   id="svg3451"
   viewBox="0 0 1548.6309 875.32556">
  <metadata
     id="metadata3480">
    <rdf:RDF>
      <cc:Work
         rdf:about="">
        <dc:format>image/svg+xml</dc:format>
        <dc:type
           rdf:resource="http://purl.org/dc/dcmitype/StillImage" />
        <dc:title></dc:title>
      </cc:Work>
    </rdf:RDF>
  </metadata>
  <defs
     id="defs3453">
    <linearGradient
       gradientTransform="matrix(.9341,.63139,-.64628,.95614,-625.01854,1174.4411)"
       gradientUnits="userSpaceOnUse"
       id="linearGradient2409-5"
       x1="590"
       x2="648.99475"
       y1="-1160.495"
       y2="-1216.4989">
      <stop
         offset="0"
         stop-color="#a95857"
         id="stop4284" />
      <stop
         offset="1"
         stop-color="#73373a"
         id="stop4286" />
    </linearGradient>
    <linearGradient
       y2="-1216.4989"
       y1="-1160.495"
       x2="648.99475"
       x1="590"
       id="linearGradient2409"
       gradientUnits="userSpaceOnUse"
       gradientTransform="matrix(0.9341,0.63139,-0.64628,0.95614,-625.01854,1174.4411)">
      <stop
         style="stop-color:#2c89a0;stop-opacity:1"
         id="stop3456"
         stop-color="#a95857"
         offset="0" />
      <stop
         style="stop-color:#006680;stop-opacity:1"
         id="stop3458"
         stop-color="#73373a"
         offset="1" />
    </linearGradient>
    <linearGradient
       gradientUnits="userSpaceOnUse"
       y2="429.84015"
       x2="753.60077"
       y1="431.27124"
       x1="695.06189"
       id="linearGradient4394"
       xlink:href="#linearGradient2409" />
  </defs>
  <path
     style="fill:#006680"
     id="path3460"
     fill="#a95857"
     d="m0-2e-005h1548.6309v875.32556h-1548.6309z" />
  <path
     style="fill:#006680;stroke:#ffffff;stroke-opacity:1"
     id="path3462"
     stroke-width="5.05076"
     stroke-linecap="square"
     stroke="#6d393b"
     fill="#a95857"
     d="m1339.9033-2.5578c-15.4499-2.6299-11.1877,11.2036.1851,15.8251s8.2304,3.0315 5.9213,13.7501c-4.175,19.3792-11.5275,24.1844-28.9383,18.9129-14.1995-4.2993-19.0329-2.5945-22.5092,7.939-4.099,12.4196-2.3787,15.6297 11.3864,21.248 6.8274,2.7866 13.8732,6.3143 15.6574,7.8393 6.1021,5.2156 2.7452,24.7115-5.711,33.1678-4.2635,4.2634-14.4511,4.4433-24.0685.4249-3.9891-1.6667-9.1139-3.0304-11.3881-3.0304-5.3556,0-12.1396,11.0506-12.1495,19.7909-.0066,6.0293.9552,7.1049 10.1743,11.3762 14.4581,6.6985 18.1086,10.5671 18.0692,19.1485-.0439,9.5914-7.7127,22.8551-14.6187,25.2838-4.3269,1.5217-8.2378.7859-18.7343-3.5247-9.5945-3.9401-14.2582-4.9167-16.8516-3.5287-4.5051,2.4111-11.2745,17.0998-9.7324,21.1182 .635,1.6547 6.3926,6.4765 12.7954,10.7153 7.2616,4.8074 12.1297,9.6069 12.9404,12.7575 2.7184,10.5655-10.2702,30.3046-19.9408,30.3046-2.7124,0-9.8926-2.8382-15.9555-6.3071-12.9288-7.3971-17.6258-6.4553-23.6564,4.743-4.8734,9.0495-3.1903,15.6602 5.2577,20.6506 9.0214,5.3291 15.7985,13.0083 15.7985,17.9016 0,7.0351-10.0463,21.7726-16.7691,24.5993-7.1262,2.9964-12.222,1.6839-22.2597-5.7327-3.5356-2.6122-7.961-5.2877-9.8347-5.9455-4.2521-1.4929-12.8358,5.0616-16.8863,12.8942-2.7359,5.2906-2.7085,6.3831.2728,10.9332 1.8217,2.7804 3.9441,5.0553 4.7168,5.0553s4.3044,2.8353 7.8488,6.3007c9.6844,9.4683 8.9963,17.9432-2.3811,29.3205-11.122,11.1218-15.8934,11.244-29.0805.7443-12.0909-9.6269-16.9984-10.0561-24.8788-2.1757-8.2418,8.2417-7.5458,13.7203 3.1858,25.0809 6.1714,6.5331 9.0871,11.3759 9.0781,15.0778-.0271,11.0791-13.6585,24.6068-24.8219,24.6332-3.9117.0092-8.6239-2.7755-15.3618-9.0781-5.551-5.1922-11.6658-9.0914-14.2577-9.0914-4.5295,0-18.2763,11.8884-18.2763,15.8057 0,1.1372 3.0891,6.1144 6.8646,11.0606 9.7286,12.7452 11.7309,17.1092 10.1878,22.2024-2.8911,9.5408-16.1196,19.6217-25.7484,19.6217-4.7748,0-8.9022-3.23-20.2646-15.8582-3.1499-3.5008-6.7864-6.3617-8.0813-6.3576-4.5739.0147-15.5987,8.1308-17.89725,13.1755-2.04596,4.4906-1.529,6.2457 4.25945,14.4576 9.4025,13.3395 10.1488,20.6921 2.9169,28.7351-6.2432,6.9432-19.12568,12.4076-25.3896,10.7695-2.14092-.5599-7.53712-5.9513-11.99152-11.9809s-9.36189-11.4476-10.90561-12.04-6.70194,1.0656-11.46244,3.6844c-10.87868,5.9845-12.05559,12.1153-4.5944,23.9345 7.68839,12.1792 7.28089,19.3441-1.56117,27.4472-7.72961,7.0837-20.25592,10.7513-25.55821,7.4833-1.76316-1.0867-5.02405-4.9342-7.24635-8.5501s-6.40689-9.3806-9.29904-12.8107l-5.25843-6.2363-9.89386,4.9033c-11.761,5.8287-13.37283,11.3367-6.98278,23.8622 5.99843,11.7579 5.43443,19.0057-1.96366,25.2306-3.36801,2.834-9.44006,6.0684-13.49351,7.1876-10.85096,2.9961-16.59102-.6024-23.94543-15.0116-7.0472-13.8073-11.83552-15.7943-24.07052-9.9885-7.83824,3.7195-10.7457,10.2816-7.35894,16.6097 3.65261,6.825 5.7591,19.63 4.008,24.3637-1.91755,5.18366-16.11326,12.34107-24.60818,12.4073-9.18079.0716-12.94107-3.26701-17.54805-15.5802-5.29712-14.1578-7.28762-16.7003-13.07469-16.7003-7.11377,0-17.13915,4.1426-19.15899,7.9168-1.19964,2.2415-.73397,7.8695 1.32837,16.05685 2.47394,9.82117 2.66723,13.72089.87497,17.6545-3.03409,6.65913-14.50764,11.25428-26.21216,10.49795-8.49242-.54878-9.7601-1.30069-12.94689-7.6794-1.94298-3.88909-4.47568-10.92577-5.62824-15.63704-2.53924-10.37956-8.50308-12.75816-21.01428-8.38126l-8.21063,2.87241 .58674,15.85376c.73808,19.94362-1.70805,24.32824-15.16049,27.17557-19.18916,4.06156-24.96521-.11407-28.7109-20.75597-1.1981-6.60248-3.31342-12.72517-4.70066-13.60611-4.10528-2.6068-18.6175-1.88659-22.74092,1.12852-3.23724,2.36711-3.74543,5.07591-3.3392,17.79958 .40628,12.72618-.1245,15.55373-3.49119,18.60062-5.769,5.2209-17.99176,7.49771-27.14696,5.05677-9.12055-2.43162-13.48424-10.48208-13.48425-24.87665 0-10.43538-4.83904-15.33174-15.15228-15.33173-11.37012,0-14.59341,4.2404-15.50651,20.39916-1.00906,17.85801-4.82729,22.02726-20.17297,22.02725-19.04964,0-24.46474-6.16858-23.49354-26.76284 .54853-11.63193-2.66716-15.53572-14.05561-17.06324-10.85926-1.45653-16.67495,3.99895-16.67495,15.64214 0,10.45851-4.79535,19.72154-11.53627,22.28445-7.92266,3.01219-22.75323.07796-28.46246-5.6313-4.59126-4.59127-4.81183-5.81504-3.5243-19.55474 1.63311-17.42775.12044-19.52662-15.12871-20.9919-9.92142-.95332-10.06335-.88486-13.06495,6.29903-1.66903,3.99455-3.03461,9.06749-3.0346,11.27326 0,16.52194-17.78821,22.89865-36.65759,13.1409-7.4293-3.84186-8.62236-8.975-5.60925-24.13386 2.95645-14.87388 1.76417-17.53668-9.51984-21.26068-11.97599-3.9525-16.34561-1.443-20.12509,11.5582-5.83803,20.08216-15.05956,24.84882-32.6369,16.87014-11.46589-5.20457-14.25261-11.41307-10.7386-23.92494 4.52057-16.096 4.61995-17.8187 1.22434-21.2144-1.81239-1.8124-6.88871-4.3718-11.2807-5.6877-6.97835-2.0908-8.49788-1.9287-12.04903,1.285-2.23497,2.0226-5.05646,6.9912-6.26988,11.0414-3.75989,12.5494-8.5288,17.1991-17.40153,16.9664-8.11795-.2128-18.07086-4.4015-23.60244-9.9331-4.37649-4.3765-4.05037-13.592.81875-23.1363 2.22233-4.3561 4.04061-9.7128 4.04061-11.9037 0-5.2255-10.68121-12.7038-18.6601-13.0647-6.53056-.2955-6.97198.1601-18.74227,19.3481-3.22558,5.2583-5.60465,6.7588-11.49526,7.2503-12.69093,1.0589-27.87396-9.309-27.87396-19.0342 0-2.9054 2.35179-9.6036 5.2263-14.8849 7.01923-12.8966 5.98035-18.0032-4.87893-23.9823-10.78983-5.9409-13.8956-4.7705-22.93586,8.6422-3.68827,5.4721-8.14858,10.8286-9.91168,11.9034-5.05066,3.0786-16.41243-.0838-24.62637-6.8544-9.5742-7.8918-9.95632-15.4216-1.46232-28.8152 7.59988-11.9838 7.60184-15.8423.01091-22.2296-11.46865-9.6502-13.75377-9.256-26.17334,4.5138-5.87868,6.5179-20.16234,16.1063-24.04736,17.4678m-.46923,52.1753c78.27512,58.73032 386.98233,159.62339 479.99384,162.62654l1e-005,6e-005c96.72815,3.44019 185.12709-6.51088 275.91399-31.05975 252.24329-68.20673 465.39069-245.66705 579.89589-482.80485 16.2032-33.5565 56.9661-146.9389 77.551-211.3795" />
  <path
     style="fill:#006680;stroke:#ffffff;stroke-opacity:1"
     id="path3464"
     stroke-width="5.05076"
     stroke-linecap="square"
     stroke="#6d393b"
     fill="#a95857"
     d="m479.35232,828.46665c-36.62886-2.2669-66.36747-9.32494-102.00914-24.21039-36.71481-15.33363-71.61687-39.30758-101.67677-69.84091-120.30492-122.19985-119.11381-319.30995 2.66555-441.08935 79.05448-79.0545 192.08275-109.6856 301.57395-81.7278 108.83402,27.79 196.85328,116.8379 224.5654,227.1898 8.00475,31.8758 9.88848,50.7912 8.66586,87.0209-1.68765,50.0086-9.68488,82.8086-30.75089,126.12127-56.4593,116.08307-173.94463,184.52572-303.03396,176.5365v-2e-005zm21.94678-19.45776c2.2236-7.8024 7.34764-8.82887 7.34764-1.47191 0,11.42779 17.2342,10.91908 18.55356-.54763 .80499-6.99609 6.09631-7.34326 7.71041-.50584 1.02338,4.33511 2.32446,5.05076 9.18245,5.05076 7.77468,0 8.00705-.20427 8.61718-7.57614 .72875-8.80488 5.65294-10.4214 7.63912-2.50779 1.49331,5.94982 8.62531,8.42732 14.77918,5.13388 3.04238-1.62828 4.22878-4.22704 4.22878-9.26316 0-8.19169 3.14921-9.14655 6.42851-1.94923 4.76014,10.44736 20.83007,4.46803 18.55563-6.90421-1.51401-7.57 2.59561-9.98443 5.63613-3.31124 2.75265,6.04138 11.6069,7.09562 16.71259,1.98992 3.747-3.74708 3.68934-3.29001 1.23166-9.75417-2.91164-7.65823 1.5025-8.88914 7.08535-1.97582 4.54102,5.62323 4.88071,5.70976 10.38279,2.64577 5.00412-2.78675 5.62302-4.18367 5.14645-11.61675-.61919-9.65676.40683-10.22919 7.08638-3.95409 4.47083,4.2002 5.14216,4.29218 10.23173,1.40294 5.55297-3.15232 6.79221-8.96449 3.51901-16.50459-1.97802-4.55648 2.32751-4.71437 7.2433-.26563 4.54748,4.11544 12.90498,2.32234 15.98314-3.42925 1.73283-3.23798 1.48189-5.28207-1.13994-9.28348-3.8608-5.89237-1.25265-10.92393 3.00391-5.79509 3.33967,4.02405 11.02618,3.99417 15.07903-.05869 4.0551-4.05517 4.03635-8.68703-.05359-13.20637-5.00685-5.53242-1.59081-8.55088 5.16252-4.56156 6.81207,4.0239 11.41277,2.67508 14.57915-4.2744 2.01523-4.42288 1.69356-5.81151-2.3404-10.10549-3.98083-4.23739-4.20418-5.15937-1.50143-6.19652 1.74643-.67015 4.99868-.24256 7.22736.95019 5.33035,2.85269 9.31526,1.13267 12.23824-5.28257 2.03519-4.46679 1.78227-5.85915-1.74666-9.61552-3.69548-3.93368-5.55202-9.18275-3.24782-9.18275 .4833,0 3.20277.88364 6.04338,1.96363 6.65771,2.5313 10.13888,1.09537 13.09986-5.40324 2.10259-4.61478 1.77142-5.87955-2.78509-10.63553-6.00694-6.2698-4.99038-8.42635 3.19976-6.78833 7.41403,1.48282 11.88834-2.17991 11.88834-9.73179 0-4.23575-1.35377-6.47368-4.89088-8.08528-6.83875-3.11598-4.54657-7.95671 3.0483-6.43774 7.47268,1.49452 11.9441-2.14458 11.9441-9.72068 0-4.2868-1.35398-6.4737-5.05076-8.1581-7.29069-3.3219-6.71935-8.4012.76022-6.7584 12.11157,2.6602 17.82281-13.3908 6.31085-17.7361-8.38592-3.1653-7.62813-7.0892 1.51523-7.8459 7.18948-.595 7.60853-1.0202 8.21072-8.3298 .57502-6.9795.05338-7.9221-5.55584-10.0394-8.01823-3.0265-7.92992-7.0826.17183-7.8887 7.56845-.7531 10.87375-5.172 9.11376-12.1845-.90805-3.6179-3.05513-5.4604-7.36858-6.3231-8.30301-1.6606-7.97695-6.9411.47887-7.7564 6.20498-.5982 6.56599-1.0763 6.56599-8.6944 0-7.377-.51461-8.1506-6.06091-9.1113-7.39006-1.28-8.03298-6.4233-1.01015-8.0812 4.33511-1.0234 5.05076-2.3244 5.05076-9.1824 0-7.5525-.37853-8.0455-6.91048-9.0003-6.77214-.99-11.46048-6.0609-5.60353-6.0609 1.63618,0 4.89511-1.591 7.24192-3.5356 3.47529-2.8796 3.96053-4.66 2.61551-9.5964-1.40541-5.1581-2.76004-6.1543-9.09386-6.688-4.8396-.4077-7.44246-1.6442-7.44246-3.5355 0-1.5997 1.29877-2.9085 2.88615-2.9085 4.83356,0 8.96389-5.631 7.75389-10.5711-1.79268-7.319-4.6104-9.6189-11.15338-9.1036-7.73468.6092-9.28765-3.1368-2.56944-6.1978 5.50519-2.5083 6.58007-7.9989 2.90883-14.8586-1.78169-3.3292-3.46129-3.8623-8.93383-2.8357-8.54639,1.6033-10.76824-1.6976-4.08859-6.0743 6.14508-4.0263 6.65345-10.97 1.16667-15.9354-3.22534-2.9189-5.0535-3.1882-9.98209-1.4701-7.79476,2.7173-9.54194-1.0898-2.89847-6.3156 5.71775-4.4975 5.90398-7.5457.84273-13.7922-3.47252-4.2858-4.49611-4.5315-10.0928-2.4229-7.94388,2.993-9.78533.2221-4.40123-6.6226 4.38444-5.574 3.59929-9.5606-2.95426-14.9995-2.86333-2.3764-4.19506-2.2962-9.15652.5513-6.77865,3.8905-10.0155,1.1587-5.08396-4.2906 4.42615-4.8909 4.04693-10.9735-.967-15.511-4.00964-3.6287-4.46475-3.6422-10.28038-.3045-7.48299,4.2947-10.87318,2.7056-6.75911-3.1681 3.9348-5.6177 3.85712-9.3218-.29147-13.906-4.05564-4.4814-9.42016-4.7593-12.81886-.6641-3.62899,4.3726-8.93621,3.987-6.95126-.5051 .85917-1.9446 1.63834-6.23 1.73138-9.5231 .13481-4.7713-.95361-6.3875-5.35743-7.9559-4.61676-1.6442-6.35416-1.1907-10.55387,2.7547-4.27321,4.0145-5.2101,4.2467-6.24579,1.5477-.67016-1.7464-.24256-4.9986.95019-7.2273 2.85449-5.3337 1.132-9.3156-5.2971-12.2449-4.62779-2.1085-5.88285-1.7683-10.77891,2.9225-6.22277,5.9616-9.09499,4.0673-6.03522-3.9805 1.62081-4.263 1.2417-6.0134-2.00584-9.2609-5.40195-5.402-11.31191-5.0431-15.22197.9244-4.26418,6.5081-9.51907,4.8189-6.8498-2.2018 2.41444-6.3506 2.47224-5.9117-1.26983-9.6538-5.05603-5.056-13.95901-4.0535-16.66068,1.876-3.41852,7.5029-6.11698,6.1353-6.81742-3.455-.52215-7.149-1.42694-8.7063-5.67201-9.7626-6.83307-1.7005-10.06663-.2691-12.22658,5.4119-2.6441,6.9547-8.15884,6.3273-6.861-.7806 1.25976-6.8991-.66276-9.9089-7.41127-11.6027-5.63483-1.4142-11.88695,2.9047-11.88695,8.2115 0,1.5874-1.3637,2.8862-3.03045,2.8862-2.01231,0-3.03046-2.0124-3.03046-5.9899 0-11.8844-16.64329-13.6996-19.19247-2.0933-1.77422,8.0783-7.0715,8.0422-7.0715-.0481 0-4.7009-1.19588-6.5655-5.18303-8.0815-7.00161-2.662-12.3243.4572-14.02968,8.2217-1.65215,7.5224-5.6607,6.8042-7.07109-1.267-.93528-5.3524-1.76924-5.8942-9.07154-5.8942-7.35488,0-8.13118.5175-9.09137,6.0609-1.23703,7.1416-6.76311,8.2292-7.71621,1.5186-.74452-5.2421-9.26623-8.3067-14.31477-5.1479-1.77254,1.1091-3.50772,4.8795-3.85592,8.3787-.80141,8.0537-4.41654,8.1136-8.94997.1482-2.85352-5.0137-4.38768-5.9232-8.08122-4.7907-7.19335,2.2055-9.60984,5.0049-9.60984,11.1329 0,7.8915-3.25459,9.1331-6.45225,2.4614-3.24265-6.7657-8.26767-8.04-14.8074-3.755-3.91511,2.5653-4.66551,4.3748-3.73775,9.0136 1.52592,7.6292-2.56583,10.087-5.62287,3.3775-4.94589-10.855-22.24215-3.5401-18.00167,7.6132 2.65236,6.9762-1.50809,9.7831-5.52761,3.7294-3.40801-5.1328-12.77845-5.9129-16.54274-1.3772-1.58386,1.9085-2.01017,5.6017-1.16598,10.1016 1.49819,7.9859-.51845,9.025-5.92348,3.0526-4.56366-5.0428-7.3615-5.0796-13.41325-.1762-4.3526,3.5267-4.55433,4.4355-2.30785,10.3976 3.28027,8.7056 1.23616,11.3129-4.58323,5.8458-9.08668-8.5364-22.85144,1.9095-15.79377,11.9857 4.24581,6.0616 1.57188,9.3205-4.424,5.3919-6.09589-3.9942-8.76867-3.9536-13.36198.2033-4.59735,4.1606-4.69529,8.3645-.30783,13.2126 2.557,2.8255 2.8162,4.3129 1.05789,6.0712s-3.29506,1.4546-6.27246-1.2399c-8.41298-7.6137-20.14881,3.8277-13.56613,13.2258 5.41579,7.7321 4.28432,10.4606-2.81515,6.7894-5.82147-3.0104-6.30669-2.9284-11.11168,1.8766-6.07641,6.0763-6.38447,10.3854-.98383,13.7581 7.86895,4.9143 4.06152,9.9282-4.18694,5.5138-3.15624-1.6892-4.90405-1.1159-8.95856,2.9386-6.29899,6.299-6.29715,8.1928.01352,13.6798 7.15939,6.225 6.28464,8.2672-2.87811,6.7191-6.6708-1.127-8.27363-.6954-10.10152,2.7201-3.34159,6.2437-2.59096,12.0404 1.86795,14.4268 2.22234,1.1893 4.04061,3.5354 4.04061,5.2134 0,2.3779-1.52145,2.7655-6.89712,1.757-5.64443-1.059-7.29566-.5492-9.09137,2.8061-3.65799,6.8349-2.59589,12.3505 2.85651,14.8347 7.49119,3.4133 6.56381,8.1716-1.43464,7.3609-5.23936-.5311-7.05099.3492-9.42909,4.5816-3.63188,6.4637-1.95388,11.385 4.75103,13.9342 6.80829,2.5886 6.48993,6.0806-.55431,6.0806-7.4508,0-10.50559,3.3632-10.50559,11.5663 0,5.8477.78483,6.8745 6.06092,7.9297 7.86535,1.573 8.05524,6.768.24737,6.768-7.25482,0-10.83541,4.1199-9.98981,11.4946 .50716,4.4228 2.10264,6.1053 7.21706,7.611 8.31343,2.4475 8.67115,7.1584.54356,7.1584-4.68652,0-6.29472,1.0849-7.24996,4.8909-2.0711,8.2521-.2201,12.173 6.7106,14.2147 8.01019,2.3597 8.58436,6.6572 1.00595,7.5292-4.65549.5357-5.66002,1.7247-6.19876,7.3372-.79687,8.3021 2.76119,12.8864 9.38428,12.0911 6.81459-.8183 8.04847,3.9565 1.45039,5.6125-6.38434,1.6024-8.97611,6.2281-7.2694,12.9741 1.03268,4.0817 2.71624,5.1711 8.77419,5.6778 8.72382.7297 10.3039,5.6624 2.4456,7.6347-4.09898,1.0288-5.05077,2.5123-5.05077,7.8724 0,7.9516 3.92507,11.6897 11.33351,10.7935 7.17-.8673 8.37334,3.0441 1.8508,6.016-3.74898,1.7081-5.10309,3.8792-5.10309,8.18196 0,7.49594 4.11799,10.85379 12.30409,10.03278 8.07437-.80978 9.68952,2.75899 2.89451,6.39556-5.4619,2.92308-6.44469,7.87389-2.88399,14.52712 1.85864,3.47285 3.47662,3.93313 10.10153,2.87377 9.0204-1.44238 10.37115,1.17905 3.48205,6.75749-3.99598,3.23576-4.16552,4.14951-1.82061,9.8106 2.88346,6.96133 7.01745,8.68251 13.81169,5.75056 6.00734-2.59236 8.0572-.25385 3.85133,4.39358-4.23111,4.67533-4.32919,13.19709-.19134,16.63121 2.57326,2.13566 4.486,2.1472 10.25278.0619 8.59755-3.10888 10.27218-1.93685 5.98273,4.1872-4.11706,5.87794-4.08946,9.53215.10706,14.16925 4.05564,4.48138 9.42015,4.75934 12.81885.66416 1.38329-1.66675 3.31288-3.03046 4.28798-3.03046 2.54819,0 2.18652,6.85952-.5035,9.54954-1.28035,1.28027-1.70888,4.53785-.97938,7.44436 1.72556,6.87508 10.01869,9.06911 15.50679,4.10243 3.07183-2.77992 4.5616-3.07157 6.38358-1.2496s1.81081,2.94243-.04774,4.80099c-3.76274,3.7627-2.86338,11.18116 1.74693,14.41035 4.66941,3.27059 11.78022,2.22814 13.38842-1.96276 .58038-1.51263 2.4278-2.75012 4.10526-2.75012 2.9902,0 2.89914,2.51303-.37878,10.45039-1.72896,4.18664 5.33841,11.77296 10.96761,11.77296 2.1832,0 4.94263-1.81827 6.13199-4.04061 2.26682-4.23559 8.08122-5.59362 8.08122-1.88749 0,1.18424-.86591,3.77108-1.92422,5.74858-4.93011,9.21204 12.05116,17.17435 17.6178,8.26074 3.75292-6.00941 7.2385-5.0588 5.90465,1.61039-1.3056,6.52825-.08461,9.00133 6.03461,12.22206 5.63683,2.96689 9.61298,1.38817 12.50819-4.96614 3.01604-6.61932 6.32598-4.36214 6.32598,4.31382 0,4.73517 1.21859,7.53293 3.9078,8.97215 6.48813,3.47232 10.24664,2.39999 13.86384-3.95565 4.2809-7.52184 7.6913-6.76053 6.83998,1.5268-1.1665,11.35596 14.41116,15.17587 18.43321,4.52023 2.93061-7.76399 7.4628-7.91422 7.4628-.24736 0,7.23786 4.11896,10.83774 11.43028,9.9898 4.37885-.50786 6.02954-2.10962 7.50408-7.28181 2.13583-7.49163 5.96659-7.6456 7.01812-.28207 1.05575,7.39331 4.36331,10.21416 11.18735,9.54138 5.01446-.49445 6.51953-1.83729 8.0405-7.17425h-4e-005z" />
  <path
     style="fill:#006680"
     id="path3466"
     fill="#a95857"
     d="m481.11862,588.417c-.07237-.5407-3.06587-1.5588-6.65222-2.2622-12.73786-2.4986-16.94579-3.8357-24.07561-7.6508-3.96918-2.124-8.30577-5.3302-9.6369-7.1251s-4.74309-5.6341-7.58213-8.5315-6.64281-6.8745-8.45285-8.838-4.12492-3.5698-5.14422-3.5698c-1.34226,0-1.75878-.7664-1.51064-2.7793 .18843-1.5287-.2245-11.0316-.9176-21.1175s-.9185-19.5937-.50086-21.1284c1.24321-4.5682 3.24818-20.1168 3.30295-25.6141 .06916-6.9452 7.71159-20.3178 16.3066-28.5333 3.7364-3.5714 10.90968-10.8974 15.94063-16.2801 7.31839-7.83 10.06897-9.9355 13.75779-10.5314 2.53584-.4097 6.9534-2.5139 9.81682-4.676s6.16316-3.9389 7.33277-3.9485 4.46297-.8592 7.31853-1.8885c6.84008-2.4655 20.91788-2.5686 25.97708-.1901 2.12954,1.0012 7.38073,2.2064 11.66932,2.6783 6.33576.6972 8.36245,1.4415 10.81149,3.9706 1.65772,1.712 6.15116,5.7708 9.98544,9.0199s8.85539,8.5638 11.15806,11.8105 7.56714,9.0908 11.69885,12.9869 9.84271,10.6567 12.69111,15.0235c4.57775,7.0181 5.32246,9.0121 6.41537,17.1781 .68006,5.0811 1.90369,9.8145 2.7192,10.5185s2.21557,4.5124 3.11123,8.4627c1.24521,5.4922 1.25567,7.8763.04441,10.1304-.87124,1.6213-1.5039,3.5468-1.40592,4.2789s-.72954,2.6819-1.83893,4.3329-1.81925,4.48-1.57746,6.2866c1.18886,8.8828-10.75302,28.2079-20.68477,33.4733-2.91467,1.5454-6.22996,3.9896-7.36729,5.4319s-4.82073,4.8946-8.1853,7.6721c-6.81945,5.6296-10.77516,6.5014-40.97951,9.0311-8.22258.6888-15.06805,1.7268-15.21213,2.307-.33098,1.3324-18.15524,1.4018-18.33331.0714z" />
  <path
     style="fill:#006680;fill-opacity:1"
     id="path3468"
     fill="#904c4e"
     d="m446.64905,574.5834c-3.63646-1.8157-5.90513-5.4479-4.15186-6.6472 1.90037-1.3 5.43692,1.072 7.32133,4.9103 1.92153,3.9141 1.57316,4.105-3.16947,1.7369zm106.00191-5.0038c-7.13766-.7178-8.6769-4.0107-11.40585-24.4007-2.42961-18.1534-2.28466-21.1503 1.70533-35.255 1.42924-5.0523 6.92505-11.9477 13.80692-17.3229 3.71885-2.9047 5.36874-3.4472 8.68289-2.8548 5.92819,1.0597 10.29694-4.069 10.23738-12.0183-.06971-9.3015.53079-14.0643 1.77323-14.0643 .63669,0 3.43838,3.1877 6.22596,7.0837 4.59502,6.4223 5.15689,7.8866 6.01652,15.6805 .90621,8.2162 3.99229,16.7868 6.04459,16.7868 .53155,0 1.23378,1.9973 1.5605,4.4385 .40959,3.0603-.05226,4.8675-1.48745,5.8201-1.14481.76-2.25638,2.8006-2.47013,4.5347s-1.20983,4.5606-2.21349,6.2812-1.75145,6.0281-1.66175,9.5725c.12847,5.0768-.51258,7.203-3.02107,10.0197-2.83551,3.184-3.48406,3.4065-5.92341,2.0315-3.08723-1.7401-10.6673-.9289-15.50407,1.6591-3.54055,1.8946-5.42399,7.5551-3.97564,11.9485 2.25184,6.8307-1.05623,10.7968-8.39046,10.0592zm7.29786-33.9249c1.07689-1.5033.97894-1.6761-.59774-1.0543-1.03711.409-1.82217,1.2181-1.74455,1.798 .20319,1.5182.87475,1.3049 2.34229-.7437zm1.89494-12.144c-.15732-1.5326-.76661-2.4066-1.39161-1.9965-.61148.4013-.81106,2.6907-.44354,5.0874 .53854,3.512.80862,3.8994 1.39161,1.9964 .39787-1.2987.59745-3.588.44354-5.0873zm-114.17484,35.431c-2.57466-3.88-8.28403-15.7451-10.159-21.1123-.72157-2.0655-2.18935-4.3967-3.26175-5.1806-2.78515-2.0357-6.06528,1.5797-6.37989,7.0321-.45708,7.9212-1.75382,10.1528-6.00972,10.3424-4.20697.1875-5.0164-.8241-2.72149-3.401 .85678-.962 1.18674-5.0493.80906-10.0218-.61696-8.1227-.49166-8.5451 3.83281-12.9223 2.45883-2.4889 4.61965-5.9862 4.8018-7.7719 .30664-3.0059.05232-3.2467-3.42816-3.2467-3.65535,0-3.77927-.1487-4.47828-5.3715-.68434-5.1132.67117-10.8415 3.47832-14.6992 1.32358-1.819 5.34043-18.8105 5.01741-21.2241-.35652-2.6638-2.67374.3771-4.81266,6.3158l-2.18029,6.0536 .16761-4.5884c.19152-5.2426 3.26474-10.8893 6.37375-11.711 1.44392-.3817 1.81404-1.3032 1.16872-2.9096-.67733-1.686.34158-3.7305 3.60254-7.2285 2.50084-2.6826 5.05357-4.7194 5.67271-4.5264s2.85683,3.5199 4.97265,7.3931c7.9474,14.5483 10.62632,18.2758 12.66165,17.6179 3.02204-.9769 10.43357,3.3777 12.29568,7.2242 .91935,1.8991 2.79972,4.7661 4.1786,6.3712s2.59029,3.5401 2.69202,4.3001 1.02243,1.6808 2.046,2.0458c1.31727.4699 2.05366-.6142 2.52018-3.7107 .93564-6.2098.69104-6.9619-3.03708-9.3371-5.79278-3.6906-16.1978-17.2704-16.8253-21.9589-.89748-6.7057-1.95988-7.9987-5.28153-6.4278-4.50815,2.1321-5.86736-.9412-2.97989-6.7376 2.88066-5.7829 3.76791-8.5102 4.1169-12.6551 .14613-1.7356 1.45604-4.7905 2.91089-6.7886 2.29262-3.1486 3.4369-3.6329 8.58478-3.6329 3.26678,0 5.86849-.5313 5.78158-1.1806s.56348-1.1807 1.44531-1.1807 2.68919-1.3106 4.01639-2.9124c2.09564-2.5294 3.34912-2.8789 9.52825-2.6565 8.65575.3116 9.16015,1.5578 3.47161,8.5772-2.24789,2.7736-5.15925,7.8803-6.46972,11.3479-3.51038,9.2888-8.04487,14.2264-12.25853,13.3482-2.56416-.5345-3.59849-.1397-4.34339,1.6579-1.54044,3.7172-.64907,6.6057 2.94424,9.5409 1.82832,1.4934 3.87247,4.2432 4.54255,6.1106s3.59057,5.517 6.48997,8.1101c3.57894,3.2011 6.47131,7.2758 9.00786,12.6901 2.05494,4.3864 5.10469,9.3033 6.77725,10.9267 4.58995,4.455 6.70958,8.8797 7.66174,15.9941 .98172,7.3351-1.21727,11.1603-6.41573,11.1603-1.68945,0-5.34753-1.0626-8.12907-2.3613s-5.822-2.3612-6.75655-2.3612-3.27192-1.0952-5.19411-2.4335c-2.44948-1.7057-4.84203-2.3237-7.99849-2.0661-5.03161.4105-4.90504-.0072-5.18579,17.1103-.11659,7.1093.32095,9.4685 2.70924,14.6083 2.73313,5.8817 2.76501,6.1952.78868,7.7549-2.67996,2.1151-3.04686,2.0733-7.20406-.8215-2.9253-2.0369-3.64137-3.3975-4.27338-8.1197-.80741-6.0328-3.36913-9.1308-6.52204-7.8874-2.42884.9579-.81764,8.4975 2.35083,11.0007 3.14249,2.4826 3.34822,4.5333.74775,7.4534-2.88965,3.2448-5.27228,2.959-7.86143-.9429zm9.83714-41.8548c.20555-1.461.18411-3.9846-.04764-5.608l-.42138-2.9515-1.33338,2.9515c-1.49313,3.3052-1.27691,8.2644.36032,8.2644 .5876,0 1.23654-1.1954 1.44208-2.6564zm39.29254-1.279c-.26963-2.0146-1.69926-3.255-2.86772-2.4881-1.12161.7361.51465,4.0623 1.99838,4.0623 .594,0 .98521-.7084.86934-1.5742zm-55.37196-7.0837c-.26963-2.0146-1.69926-3.255-2.86772-2.4882-1.12161.7361.51465,4.0623 1.99837,4.0623 .59401,0 .98522-.7084.86935-1.5741zm15.70387-14.6349c-.45439-.3924-.6469.305-.42782,1.5495 .24211,1.3755.56613,1.6551.82615.7134 .23531-.8523.05605-1.8706-.39833-2.2629zm7.45801-8.0732c.74574-2.8766-2.12201-4.7331-4.0196-2.6023-1.17705,1.3217-1.18316,2.1111-.0241,3.1118 2.13931,1.8471 3.47643,1.6786 4.0437-.5095zm60.27763-24.3596c-.9025-.7792-1.81403-2.7102-2.02563-4.2912-.62274-4.6529-5.18611-18.3697-6.63965-19.9576-.73642-.8045-1.7157-1.2155-2.17617-.9134s-1.98028-.5279-3.37736-1.8448c-2.48128-2.3388-2.47077-2.4547.45454-4.9964 3.58654-3.1164 2.45936-7.1162-1.70791-6.0606-1.76188.4464-3.5539-.2803-5.84427-2.3697-1.81678-1.6573-3.99259-3.0133-4.83515-3.0133-2.35437,0-3.73278-2.4989-2.01656-3.6558 1.17972-.7953.97113-1.0707-.91358-1.2064-1.3433-.0966.10328-.5285 3.21462-.9597 6.71335-.9302 15.13268-.2142 13.10782,1.1148-1.59766,1.0486 10.50167,4.6771 18.70912,5.6109 4.30723.4899 5.61923,1.1865 6.9211,3.6742 3.24371,6.1985 7.59194,11.0023 8.76575,9.6842 1.42084-1.5955 7.26091,2.9226 7.66321,5.9285 .15235,1.1384 1.77745,3.1146 3.61129,4.3915 4.4897,3.1263 4.45557,4.7194-.20857,9.7372-2.18049,2.3456-4.75324,5.6778-5.71724,7.4046-1.69685,3.0397-2.12885,3.1398-13.54858,3.1398-7.56199,0-12.38482-.5085-13.43678-1.4168z" />
  <path
     style="fill:#006680;fill-opacity:1"
     id="path3470"
     fill="#6d393b"
     d="m547.84974,562.374c-1.21154-1.7762-.90769-3.1376 1.4855-6.6557 1.65471-2.4326 2.86807-5.4726 2.69634-6.7557-.25704-1.9205-.94125-2.2411-3.87092-1.8131-2.94397.4301-3.61338.1112-3.87534-1.8461-.17417-1.3013 1.2592-3.8074 3.18523-5.5693 3.11252-2.847 3.41213-3.874 2.69452-9.2358-.94362-7.0504-2.25972-7.6819-3.96054-1.9003-1.37672,4.6799-3.43451,5.4508-3.93936,1.4758-1.19271-9.3911 6.47145-30.4011 11.08986-30.4011 .91847,0 2.10522-1.0504 2.63722-2.3342 1.34841-3.254 5.27443-5.2171 9.85834-4.9296 4.59834.2884 10.66721-4.8689 12.28554-10.4402 .56673-1.951 1.71411-3.5473 2.54974-3.5473s2.09487-.8034 2.79831-1.7854c1.63588-2.2838 4.80115-.2361 5.26462,3.4057 .49526,3.8917-.30478,7.8247-1.59164,7.8247-1.52855,0-13.89798,11.8646-13.72407,13.164 .18867,1.4097 5.9122,1.2568 6.62811-.1771 .3242-.6493 1.88706-1.1806 3.47304-1.1806s3.50049-1.0569 4.25446-2.3488c1.35104-2.3146 1.39838-2.3083 3.26966.4352 3.21324,4.7109 2.16237,6.825-4.22631,8.5019-3.21303.8434-9.56776,1.6744-14.12165,1.8467-7.76914.2939-8.47019.1129-11.36723-2.9345l-3.08745-3.2477-3.76135,3.8913c-4.30611,4.4547-5.96328,7.9547-5.47914,11.572 .31095,2.3233.47226,2.3721 2.03684.6152 .93453-1.0494 2.34489-1.6942 3.13413-1.4329 2.19713.7274 2.35752,10.1275.26722,15.6609-1.01104,2.6763-1.49171,5.8756-1.06818,7.1095 1.15564,3.3666 7.99034,2.6651 11.59662-1.1902 3.6204-3.8705 5.39223-3.8658 6.91072.0184 1.3294,3.4005-.15848,5.1378-4.42591,5.1681-3.59969.0255-7.78769,3.9709-9.06254,8.5375-1.78695,6.4011-5.40422,12.7318-7.2749,12.7318-.96602,0-2.44179-1.0049-3.27949-2.2331zm-86.60549-16.1913c-2.85377-9.6143-2.81205-14.6547.26906-32.5175 1.7235-9.9921 3.34576-11.6627 8.21647-8.4613 1.97516,1.2981 5.72433,3.018 8.33147,3.8219s5.44609,2.4965 6.30883,3.7614c1.82678,2.6782 3.81391,1.9099 3.3832-1.3083-.16356-1.222.25759-2.5861.93589-3.0312 .86676-.569 1.1795.5605 1.05238,3.8006-.15487,3.9477.30693,5.0087 3.2132,7.3826 3.60404,2.9439 6.65606,2.7095 7.50799-.5764 .74638-2.8789-5.59864-12.2981-8.28436-12.2981-2.37841,0-5.5403-6.351-8.06176-16.193-.97989-3.8247-2.51514-6.0114-6.63129-9.445-8.81208-7.3508-13.87636-14.4924-14.71378-20.7493-.40111-2.9971-.26949-6.8303.29249-8.5184 .84321-2.5328.57456-3.6744-1.537-6.5319-2.83834-3.841-3.18402-10.3207-.80065-15.0079 1.97715-3.8884 8.74034-3.7093 11.14531.2952 2.47747,4.1251 3.6843,3.7271 7.16055-2.3613 2.20295-3.8583 3.84527-5.3128 5.99886-5.3128 4.17143,0 4.1387,2.5784-.13603,10.7134-1.98808,3.7833-4.49586,8.6319-5.57287,10.7745-1.71128,3.4043-2.5213,3.8527-6.42363,3.556-3.88445-.2955-4.64714.1194-5.86202,3.1881-1.82556,4.6111-1.03676,10.0284 1.75603,12.0599 1.22513.8912 3.6283,4.0111 5.34035,6.9331s5.411,7.5392 8.21986,10.2601c3.19466,3.0948 6.34009,7.7245 8.39989,12.3638 1.81106,4.0789 5.10336,9.1685 7.31622,11.3101 3.34315,3.2356 4.23854,5.0959 5.29592,11.003 .8942,4.9956.81669,7.6209-.26074,8.8307-.84327.947-1.63278,1.7217-1.75445,1.7217-1.814,0-18.41773-6.4367-20.16553-7.8176-2.74539-2.1689-14.08989-2.7079-15.8316-.7521-1.56754,1.7602-1.47238,19.335.15985,29.5258 1.89768,11.8482-.70257,11.5925-4.26811-.4198zm-42.75132,3.1578c-.46361-.6045-.33446-1.4328.28699-1.8406s1.24075.0867 1.37624,1.0991c.27755,2.0737-.40731,2.3791-1.66323.7415zm24.99645-4.5089c-1.38616-2.435-3.05838-5.7555-3.71603-7.3789-1.92988-4.7637-5.16697-8.2644-7.64213-8.2644-2.81435,0-6.54143,5.2641-6.85531,9.6823-.30263,4.2601-2.57888,6.4382-3.96976,3.7986-1.80455-3.4247.24922-11.4506 4.01105-15.6747 2.01181-2.259 4.6687-6.7312 5.90422-9.9383l2.2464-5.8308 3.33678,2.7255c2.55813,2.0896 3.41307,3.7648 3.66362,7.1785 .17973,2.4489.59184,4.628.91578,4.8422s2.20798,1.3035 4.18674,2.4206c4.01922,2.2691 5.34522,6.6789 2.72441,9.0605-.98697.8968-1.3478,3.4843-.92572,6.6379 .84818,6.3374-.54303,6.603-3.88005.741zm137.42882-2.1417c-1.8801-1.6232-1.98278-2.2403-.84919-5.1036 1.73636-4.386 3.96638-6.2298 6.45923-5.3405 2.85842,1.0197 3.1916,5.4561.68941,9.1798-2.42211,3.6047-3.36874,3.7947-6.29945,1.2643zm-4.43145-14.6199c-1.28817-1.6797-.18971-3.6042 2.05707-3.6042 1.05963,0 1.77766.8295 1.70381,1.9682-.15372,2.3713-2.43564,3.364-3.76088,1.636zm17.99449-18.9235c-1.30552-3.6382-.88596-5.9319 1.08511-5.9319 .62592,0 1.42246,2.1251 1.77009,4.7225 .73981,5.5276-1.03581,6.2797-2.8552,1.2094zm-150.19818-3.1772c-.50139-.4328-1.25529-3.3549-1.67535-6.4934-.81392-6.0814-2.22867-7.0771-5.4583-3.8413-1.46456,1.4673-2.43631,1.5844-4.55711.5487-3.36508-1.6432-3.73036-4.2202-1.80475-12.7328 .83583-3.695 1.38996-7.6875 1.2314-8.8723-.40312-3.012 3.06362-11.5049 4.69627-11.5049 2.18215,0 1.55663,10.2229-.86297,14.1035-2.44896,3.9275-1.25005,8.5079 1.55884,5.9555 .88257-.802 1.52718-2.0572 1.43251-2.7893s.92866-2.9251 2.27412-4.8731l2.44629-3.5419 1.60383,3.0415c1.96722,3.7305 4.2116,28.2488 2.77465,30.3111-1.14773,1.6473-2.29844,1.8638-3.65943.6887zm81.8194-46.5051c-.93835-1.2235-5.74711-17.5149-9.09245-30.804-2.4249-9.6327 1.28965-13.2609 7.60623-7.4296 2.85234,2.6333 3.56273,2.8284 5.53314,1.5205 1.24335-.8253 2.65011-1.1644 3.12611-.7534 1.39156,1.2015 4.17099,9.402 4.86506,14.354 .55742,3.9771.94059,4.4856 2.97486,3.9479 1.28428-.3394 2.73727-.0927 3.22888.5483s2.09751.8605 3.56867.4878c1.77418-.4493 2.9907-.078 3.6129,1.1027 .51595.9792 2.49379,2.3303 4.39522,3.0027l3.45714,1.2224-3.11824,2.184c-1.71501,1.2012-4.01817,4.2293-5.11811,6.7292l-1.9999,4.545-11.00826.3382c-7.23045.2221-11.35932-.1195-12.03125-.9957zm-24.19309-43.2197c-.87963-.3288-1.35674-1.0838-1.06022-1.6777s-.72573-1.1408-2.27164-1.2156c-1.63175-.0788-.87465-.5093 1.80489-1.0264 2.5386-.4898 6.07822-.4744 7.86582.0344 2.1589.6142 2.52015.959 1.07589,1.0263-1.19585.0558-1.80951.5771-1.36368,1.1584 1.35758,1.7701-2.76566,2.9289-6.05106,1.7006z" />
  <path
     style="fill:#006680;stroke:#ffffff;stroke-opacity:1"
     id="path3472"
     stroke-width="5.05076"
     stroke-linecap="square"
     stroke="#6d393b"
     fill="#a95857"
     d="m487.93862,655.58828c-2.90458-.75903-3.53554-3.24106-3.53554-13.90776 0-10.14493-.85481-13.83867-3.90943-16.89329-3.89773-3.89773-15.9496-8.17973-23.08229-8.20113-4.58009-.0137-21.4956,16.70271-21.4956,21.24266 0,3.68227-5.70459,2.60107-13.63706-2.58457-5.81807-3.80339-5.71785-5.93566.87659-18.64619l5.42232-10.4511-3.79781-7.0522c-4.76281-8.8439-13.95787-15.5182-21.37919-15.5182-3.13053,0-9.4434,2.5999-14.02864,5.7774-9.54063,6.6116-12.58545,5.7917-18.97026-5.1088-3.87218-6.6108-3.87054-6.6681.28383-9.8882 2.29816-1.7815 6.9729-4.7689 10.38821-6.6389 10.55747-5.7806 10.99474-22.0903.9134-34.0713-5.0607-6.0143-5.83349-6.2481-18.5665-5.6154l-13.28597.6603-1.83523-8.5482c-2.38244-11.0976.43722-14.6753 11.59716-14.7151 12.54605-.0448 17.80614-3.6232 21.14898-14.3874 4.69062-15.1041.21443-24.2627-14.24875-29.1541-3.5047-1.1853-7.24869-3.5447-8.32004-5.2432-2.25173-3.5696-.75547-11.0995 3.31007-16.6579 2.7569-3.7691 3.06666-3.75 14.2326.878 10.93955,4.5342 11.70529,4.5923 18.40646,1.3967 7.16846-3.4184 15.22586-15.8036 15.22586-23.4038 0-2.1615-3.18198-7.7386-7.07106-12.3935s-7.07107-9.6604-7.07107-11.1232c0-3.1293 11.33062-13.1205 14.87946-13.1205 1.34613,0 5.86739,4.0912 10.04708,9.0914 8.37546,10.0197 14.14941,11.4195 26.15105,6.3398 10.97666-4.6459 14.24578-9.8817 13.06907-20.931-.56538-5.3088-1.6663-11.182-2.44648-13.0514-1.04048-2.4931.21372-4.2431 4.70581-6.566 8.20254-4.2416 15.89021-4.0768 17.18027.3685 .56429,1.9445 1.98548,7.255 3.15808,11.801 3.10416,12.0343 7.95445,15.5453 21.47524,15.5453 13.77026,0 18.20359-3.6415 21.83261-17.9332 2.13655-8.4143 3.32231-10.0131 7.81981-10.5445 2.91577-.3445 8.00007.7692 11.29848,2.4749l5.99707,3.1012-3.20432,11.9594c-2.97177,11.0912-2.95535,12.3395.22607,17.195 4.71165,7.1908 11.8724,11.5221 21.09372,12.759 7.15929.9603 8.46518.315 16.56581-8.1846 8.73481-9.1651 8.8313-9.2048 14.37007-5.933 3.06693,1.8117 6.71899,5.4292 8.11575,8.0391 2.27476,4.2505 1.89523,5.426-3.63986,11.2747-12.71869,13.4392-12.89006,22.0461-.70461,35.3875 6.64444,7.2747 11.98494,8.0789 23.02314,3.4669 3.98909-1.6668 8.57062-3.0305 10.18114-3.0305 3.21106,0 10.46684,16.7184 8.58044,19.7707-.64528,1.0442-5.32239,3.0601-10.39352,4.4799-13.42434,3.7586-17.86418,10.2506-16.46102,24.0695 1.4289,14.0728 5.62263,18.3286 19.76137,20.0542l10.86656,1.3262 .59471,8.0812c.32735,4.4471-.60564,9.7213-2.07463,11.7282-2.26429,3.0935-3.94046,3.3614-11.0441,1.7654-4.60597-1.035-10.73394-1.4307-13.61754-.8794-8.0297,1.535-14.12644,11.644-14.20131,23.547-.05972,9.4917.4076,10.3982 8.37103,16.2403 10.88207,7.9831 11.44271,9.6255 6.02845,17.6597-5.79163,8.5942-10.01869,9.2692-17.6793,2.8232-11.6253-9.782-23.14943-8.6382-33.18982,3.2941-6.25735,7.4365-6.41134,15.7322-.48758,26.27202l4.52225,8.04631-5.64511,4.85568c-9.1815,7.89764-14.36918,6.50615-20.94885-5.61913-6.33826-11.68037-12.54761-15.01548-23.96726-12.87318-12.13826,2.27718-17.55215,8.80418-18.66326,22.5006-.53362,6.57747-1.98485,12.62701-3.22505,13.44337-2.41396,1.58897-10.11446,1.66334-15.89196.15351zm47.36039-78.19728c53.23054-25.2071 64.24463-93.9642 21.40532-133.6259-19.75077-18.2857-43.41747-25.7214-67.91725-21.3385-54.89536,9.8205-84.09865,66.2675-60.50781,116.9552 5.81943,12.5039 25.18688,31.7946 37.34988,37.202 14.87749,6.6144 20.34949,7.5557 39.98714,6.8792 14.70687-.5065 20.38112-1.6673 29.68274-6.0721l-2e-005,.0001z" />
  <path
     style="fill-opacity:1;fill:url(#linearGradient4394)"
     id="path3474"
     fill="url(#linearGradient2409)"
     d="m695.4498,445.67392c-12.72507-22.88641 7.04687-51.58699 32.70134-47.46892 26.3822,4.23507 36.19081,37.03851 16.42452,54.92941-15.69154,14.20259-39.05364,10.65474-49.12586-7.46049z" />
  <path
     style="fill:#006680;stroke:#ffffff;stroke-opacity:1"
     id="path3476"
     stroke-width="2.5"
     stroke-linecap="square"
     stroke="#6d393b"
     fill="#a95857"
     d="m726.72421,482.7864c-.12764-.3605-.45735-2.1033-.73272-3.8729s-.86908-3.7796-1.31921-4.4667c-1.87863-2.8671-9.19339-4.3145-12.68014-2.509-1.82166.9433-3.32997,3.1734-4.24683,6.2788-.35229,1.1932-.94586,2.1466-1.33648,2.1466-.57842,0-3.50857-1.2752-4.09713-1.783-.08879-.0767.3132-1.0698.89333-2.207 1.54361-3.0257 1.84196-6.0848.79155-8.1161-1.79494-3.471-5.87217-6.0766-9.50866-6.0766-2.26088,0-4.90258,1.4689-7.10431,3.9504-1.11005,1.2511-2.20334.8854-3.56477-1.1924l-.86722-1.3235 3.06854-2.8749c3.16375-2.9642 3.40755-3.5701 3.07859-7.651-.15379-1.9076-2.54846-6.0014-4.19728-7.1755-2.01026-1.4314-5.29942-1.7153-8.24517-.7115-2.79343.9518-3.19976.7102-3.58044-2.1279-.26062-1.9434-.19622-2.0728 1.17628-2.3625 7.363-1.5542 9.28072-3.5467 9.28072-9.6425 0-5.244-1.99803-7.7762-6.97566-8.8404-1.58028-.3378-3.06036-.7767-3.2889-.9752-.50861-.4417.53098-4.53 1.15187-4.53 .24466,0 1.86798.3646 3.60736.8102 4.13971,1.0605 6.28365.4638 8.77009-2.441 4.33528-5.0648 3.8352-10.7589-1.25456-14.2861-2.19132-1.5186-2.16112-2.0241.25593-4.2852l1.34875-1.2617 1.62089,1.7668c3.06486,3.3407 5.1687,4.2046 8.44599,3.4683 3.23123-.726 6.46796-3.2203 7.65185-5.8967 1.10259-2.4925.92243-4.3272-.81418-8.2919l-.82368-1.8805 1.49124-.7712c2.62448-1.3571 3.47856-1.0438 4.12223,1.5124 1.33977,5.3208 5.08612,7.8685 10.39897,7.0718 5.52684-.8289 8.22188-4.0988 8.23062-9.9867 .00308-2.0615.33042-2.2073 3.52169-1.569 1.6219.3244 1.62418.3292 1.23699,2.6516-.9597,5.7571.28658,8.8007 4.45386,10.8774 3.26163,1.6253 6.97652,1.7419 9.35199.2936 .90298-.5505 2.34295-2.1407 3.20006-3.5337s1.76262-2.5327 2.01218-2.5327 1.19385.6613 2.09834,1.4694l1.64452,1.4694-1.52376,1.9399c-3.2988,4.1996-3.62594,7.2771-1.16804,10.988 3.40376,5.1387 7.65943,6.2731 12.75191,3.3991l2.83636-1.6008 1.00465,1.6479c.5526.9063 1.00318,1.9887 1.00131,2.4054-.00192.4316-1.31653,1.3687-3.05485,2.1776-4.22289,1.9651-5.14607,3.5258-4.87788,8.2463 .22603,3.9785 1.22855,6.2226 3.55458,7.9564 1.09819.8186 2.34345,1.1025 5.45503,1.2438l4.03192.1832-.15168,2.3444-.15172,2.3445-3.91914.07c-3.37901.0604-4.15592.2506-5.63706,1.3803-2.16389,1.6505-3.57578,5.2013-3.57578,8.993 0,3.6164 1.08823,5.1892 4.97348,7.1881 1.57038.8079 2.8552,1.7956 2.8552,2.1949 0,.9217-1.60049,3.6598-2.13925,3.6598-.2234,0-1.36765-.6094-2.54276-1.3541-3.16673-2.0069-6.84989-2.201-9.42543-.4966-2.45846,1.6269-4.48457,4.2392-5.14602,6.6348-.63938,2.3156.10283,4.8392 2.21572,7.5336 1.74352,2.2233 1.56902,2.9753-1.04586,4.5072l-1.56195.9151-1.02672-1.9252c-2.91687-5.4704-6.24229-6.8428-11.77525-4.8597-4.74185,1.6995-6.82908,5.475-5.86868,10.6156 .24284,1.3001.26976,2.5194.0597,2.7096-.83317.7546-4.1794,1.0322-4.41512.3662zm4.03328-22.206c3.49195-.7253 9.51003-3.7369 12.40402-6.2071 7.05713-6.0239 10.58029-13.6246 10.62433-22.9208 .02641-5.5652-1.0396-9.8409-3.62503-14.5405-4.46215-8.1109-12.28018-13.6112-21.57419-15.1783-4.20375-.7088-5.09384-.7084-9.31961.0037-14.70868,2.4788-25.30468,14.79-25.2873,29.3809 .01,8.3919 2.87348,15.4 8.74605,21.4052 7.22552,7.3886 17.30376,10.2853 28.03173,8.0569z" />
</svg>
